<mxfile host="app.diagrams.net" modified="2023-08-03T15:30:56.360Z" agent="Mozilla/5.0 (Windows NT 10.0; Win64; x64) AppleWebKit/537.36 (KHTML, like Gecko) Chrome/115.0.0.0 Safari/537.36" version="21.6.6" etag="DyfoRpy3EFINyc5vwEOQ" type="google">
  <diagram name="PÃ¡gina-1" id="Nypx4RuEJh70tVoFz96v">
    <mxGraphModel>
      <root>
        <mxCell id="0" />
        <mxCell id="1" parent="0" />
      </root>
    </mxGraphModel>
  </diagram>
</mxfile>
